Coordinates
version=1
nRows=17
nColumns=40
inDegrees=yes

Units are S.I. units (second, meters, Newtons, ...)
Angles are in degrees.

endheader
time	pelvis_tilt	pelvis_list	pelvis_rotation	pelvis_tx	pelvis_ty	pelvis_tz	hip_flexion_r	hip_adduction_r	hip_rotation_r	knee_angle_r	knee_angle_r_beta	ankle_angle_r	subtalar_angle_r	mtp_angle_r	hip_flexion_l	hip_adduction_l	hip_rotation_l	knee_angle_l	knee_angle_l_beta	ankle_angle_l	subtalar_angle_l	mtp_angle_l	lumbar_extension	lumbar_bending	lumbar_rotation	arm_flex_r	arm_add_r	arm_rot_r	elbow_flex_r	pro_sup_r	wrist_flex_r	wrist_dev_r	arm_flex_l	arm_add_l	arm_rot_l	elbow_flex_l	pro_sup_l	wrist_flex_l	wrist_dev_l
     15.31750000	     -8.94116863	     -4.28788996	    -10.52062456	      1.00258999	      0.92152397	      0.48175652	     22.96859348	      2.16831318	     -1.27453637	     21.01477827	     21.01477827	      7.91402183	      1.18252980	     -1.51918817	      6.07686929	     -7.76541593	    -14.80025469	     19.37955183	     19.37955183	     19.15355935	    -13.83413051	      4.05655295	     -9.57398968	      6.33968349	      1.02106439	    -18.74610783	    -12.33065553	     -2.82899707	     31.18799998	     45.12218697	      0.00000000	      0.00000000	     46.23871523	    -23.50714669	     -8.11686632	     64.23581125	     48.04790799	      0.00000000	      0.00000000
     15.34114286	     -8.92581124	     -4.45914752	    -10.04300178	      1.00449588	      0.92190961	      0.48766581	     22.62369198	      2.64717834	     -1.28675267	     21.43948174	     21.43948174	      8.44145419	      0.26960954	     -1.23316054	      5.41675288	     -8.37243132	    -15.00703314	     19.03115447	     19.03115447	     18.96427137	    -12.79349190	      3.72772075	     -9.56785341	      6.29741105	      0.80216722	    -18.54254941	    -12.44445496	     -2.80636015	     31.12089896	     45.13411748	      0.00000000	      0.00000000	     45.07934455	    -23.19819573	     -8.08412858	     63.64902982	     48.02272480	      0.00000000	      0.00000000
     15.36478571	     -8.90096253	     -4.67578472	     -9.43828823	      1.00634479	      0.92219727	      0.49350398	     22.18841905	      3.16985347	     -1.34604750	     21.72833882	     21.72833882	      9.05482915	     -0.76432733	     -0.43157430	      4.93000293	     -9.13856843	    -15.35348003	     18.99369892	     18.99369892	     18.81601317	    -11.36195312	      2.89386125	     -9.55519675	      6.26252393	      0.50678620	    -18.13525840	    -12.44259897	     -2.67560028	     30.99394609	     45.15455109	      0.00000000	      0.00000000	     43.80478113	    -22.71501605	     -8.06489242	     62.84107436	     47.98730324	      0.00000000	      0.00000000
     15.38842857	     -8.87825786	     -4.78858784	     -8.76490660	      1.00816578	      0.92236019	      0.49905184	     21.81981401	      3.46006285	     -1.83361832	     22.07827337	     22.07827337	      9.50586758	     -1.17730327	     -0.49921917	      4.53107558	     -9.64831225	    -14.96384391	     18.95704714	     18.95704714	     18.64265042	    -10.95535143	      2.86650605	     -9.51870274	      6.15087780	      0.45524651	    -17.97035340	    -12.38662019	     -2.65017060	     31.03109043	     45.15548366	      0.00000000	      0.00000000	     42.27012299	    -21.87230419	     -7.80089584	     62.29650099	     47.94469758	      0.00000000	      0.00000000
     15.41207143	     -8.85387989	     -4.97163168	     -8.08208266	      1.00993040	      0.92247212	      0.50472268	     21.41819957	      3.91042861	     -2.07512193	     22.38303313	     22.38303313	     10.08858021	     -2.00137211	     -0.00274988	      4.18555966	    -10.39646608	    -15.14929650	     19.05509861	     19.05509861	     18.49552498	     -9.66750590	      2.34452843	     -9.46681623	      6.13637168	      0.15372468	    -17.58170142	    -12.45201135	     -2.58927271	     31.04102013	     45.17198689	      0.00000000	      0.00000000	     40.47422573	    -21.30203772	     -7.68162993	     60.94448308	     47.88947237	      0.00000000	      0.00000000
     15.43571429	     -8.82728966	     -5.08283551	     -7.34327630	      1.01159943	      0.92243311	      0.51019512	     21.05027743	      4.24067673	     -2.47247097	     22.71290823	     22.71290823	     10.63575300	     -2.64524456	      0.23232955	      4.02929318	    -11.03175048	    -14.89509681	     19.41109384	     19.41109384	     18.33518764	     -8.98927951	      2.01391093	     -9.40686141	      6.02115514	      0.00739265	    -17.16558869	    -12.46825204	     -2.54688742	     31.07749030	     45.18544612	      0.00000000	      0.00000000	     38.51221290	    -20.42600503	     -7.44680321	     59.68518305	     47.82713462	      0.00000000	      0.00000000
     15.45935714	     -8.65295791	     -5.06875375	     -6.58891737	      1.01322896	      0.92253621	      0.51549705	     20.55046851	      4.40053540	     -2.90909837	     23.04632211	     23.04632211	     11.14272592	     -3.12563657	      0.13188441	      3.79480830	    -11.46797573	    -14.40130361	     19.82438067	     19.82438067	     18.08159316	     -8.71208958	      1.93201911	     -9.54595742	      5.73878303	      0.07148711	    -16.72684442	    -12.40964570	     -2.53771706	     31.20874049	     45.18575264	      0.00000000	      0.00000000	     36.35346986	    -19.30052375	     -7.09912580	     58.77898421	     47.76641043	      0.00000000	      0.00000000
     15.48300000	     -8.68993194	     -5.17421161	     -5.76242828	      1.01437928	      0.92207854	      0.52074762	     20.35552039	      4.75095287	     -3.25352680	     23.46170901	     23.46170901	     11.61503626	     -4.06168875	      0.29600878	      4.31132331	    -12.24155399	    -13.85335796	     21.15411266	     21.15411266	     17.82652801	     -8.42705928	      1.25034225	     -9.43655974	      5.65822253	     -0.45563774	    -15.76395677	    -12.52623352	     -2.58475737	     31.34045188	     45.20387677	      0.00000000	      0.00000000	     33.97904378	    -18.67825730	     -6.84351235	     56.57557992	     47.68773520	      0.00000000	      0.00000000
     15.50664286	     -8.54406284	     -5.19536158	     -4.96876832	      1.01544546	      0.92178242	      0.52589612	     20.03689978	      5.02340555	     -3.45971091	     23.98734506	     23.98734506	     12.25947287	     -5.01244115	      0.77730398	      4.73734091	    -12.87523771	    -13.14284166	     22.59726393	     22.59726393	     17.06061831	     -8.65825380	     -0.24129554	     -9.50630498	      5.43616351	     -0.57276733	    -14.52054865	    -12.56015594	     -2.50060481	     30.71646053	     45.27360650	      0.00000000	      0.00000000	     32.05425993	    -17.55720852	     -6.50228953	     53.24331872	     47.57882114	      0.00000000	      0.00000000
     15.53028571	     -8.46538599	     -5.19964714	     -4.13366026	      1.01606128	      0.92112361	      0.53073564	     19.85572222	      5.21122249	     -3.89825065	     24.54505730	     24.54505730	     12.75635451	     -5.72386933	      0.68848100	      5.77355897	    -13.51574324	    -11.97873542	     24.93496827	     24.93496827	     16.51752809	     -9.36593649	     -0.99079831	     -9.61364102	      5.21371989	     -0.76576278	    -13.28518892	    -12.67096322	     -2.59846759	     30.99657787	     45.28862188	      0.00000000	      0.00000000	     29.43217536	    -16.58531796	     -6.09955256	     51.34263890	     47.49114279	      0.00000000	      0.00000000
     15.55392857	     -8.16110092	     -5.22062455	     -3.35972984	      1.01649858	      0.92045141	      0.53545686	     19.51182151	      5.43400631	     -4.19916863	     25.23069058	     25.23069058	     13.34637629	     -6.47713590	      0.52560860	      6.90528455	    -14.16998861	    -10.69110447	     27.87969027	     27.87969027	     15.87471616	    -10.39116879	     -1.72645977	    -10.04548314	      5.00455795	     -0.81052185	    -11.75248172	    -12.88400150	     -2.68910686	     31.32979836	     45.29961868	      0.00000000	      0.00000000	     26.82498328	    -15.60584893	     -5.68378438	     49.34991649	     47.40290760	      0.00000000	      0.00000000
     15.57757143	     -8.23895054	     -5.14968906	     -2.49638752	      1.01623190	      0.91905562	      0.53975626	     19.72385076	      5.58863112	     -4.40000878	     26.04953183	     26.04953183	     13.92128217	     -7.71186062	      0.91753786	      8.86432876	    -14.53101710	     -8.61535346	     31.20211288	     31.20211288	     14.06007917	    -12.86107280	     -4.07065364	     -9.86900864	      4.72589351	     -1.13532546	     -9.28474681	    -12.89732219	     -2.60903636	     29.96467241	     45.41896319	      0.00000000	      0.00000000	     25.19470030	    -14.56452632	     -4.77605625	     43.53550016	     47.22692937	      0.00000000	      0.00000000
     15.60121429	     -8.12989898	     -5.17440192	     -1.71410967	      1.01573584	      0.91738298	      0.54387142	     19.80377796	      5.80979077	     -4.67116289	     26.97576952	     26.97576952	     14.50255194	     -8.71775449	      0.79955789	     11.05137418	    -15.01530728	     -6.70304870	     35.35915195	     35.35915195	     13.10728289	    -14.54014762	     -4.53510232	    -10.07962924	      4.54843311	     -1.40323139	     -7.10965357	    -13.13395402	     -2.80926867	     30.55299184	     45.43925889	      0.00000000	      0.00000000	     22.39635101	    -13.72962128	     -4.29670141	     40.98664126	     47.11864876	      0.00000000	      0.00000000
     15.62485714	     -7.97273322	     -5.23465893	     -0.95888609	      1.01491425	      0.91555150	      0.54766253	     19.87273390	      6.06968381	     -4.87836634	     27.92779502	     27.92779502	     15.21678361	     -9.70287723	      1.03835757	     13.47231972	    -15.33056316	     -4.52797933	     39.88407602	     39.88407602	     12.56784484	    -16.11909722	     -3.19652456	    -10.29111260	      4.40508337	     -1.39760667	     -4.37117906	    -13.33699819	     -2.87369436	     29.97026584	     45.53302445	      0.00000000	      0.00000000	     20.47325113	    -12.67947031	     -3.29698224	     36.30026410	     46.93607704	      0.00000000	      0.00000000
     15.64850000	     -7.82332861	     -5.39699126	     -0.24883265	      1.01387089	      0.91331807	      0.55117650	     19.97653534	      6.41659030	     -5.15229496	     28.88282154	     28.88282154	     15.82059100	    -10.63859395	      0.86087983	     16.02618157	    -15.67287039	     -2.48563682	     44.40370562	     44.40370562	     11.68400284	    -17.37267327	     -2.78902358	    -10.54616445	      4.39728881	     -1.33140150	     -1.90901297	    -13.71337492	     -3.07552053	     30.87059749	     45.53662905	      0.00000000	      0.00000000	     17.60331753	    -11.75991778	     -2.88830305	     34.21979028	     46.83272308	      0.00000000	      0.00000000
     15.67214286	     -7.64403564	     -5.42051664	      0.40102302	      1.01255212	      0.91115704	      0.55419551	     20.09034772	      6.63098073	     -5.22818587	     29.89455230	     29.89455230	     16.62632000	    -11.60253322	      1.28288237	     18.76329041	    -15.49422035	     -0.20064348	     49.19709747	     49.19709747	     13.29502963	    -17.77343581	      4.33253573	    -10.75366166	      4.22735069	     -1.40367641	      1.44901180	    -13.96812857	     -3.08001666	     30.56245419	     45.61868474	      0.00000000	      0.00000000	     15.47099171	    -10.93165811	     -1.53190707	     29.70820922	     46.58320408	      0.00000000	      0.00000000
     15.69578571	     -7.47233665	     -5.56007024	      0.99146256	      1.01118481	      0.90896788	      0.55702804	     20.13034179	      6.97563775	     -5.31041842	     30.71728025	     30.71728025	     17.21858381	    -12.54173280	      1.23822059	     21.22732981	    -15.49283769	      1.55548897	     53.02910946	     53.02910946	     12.88267233	    -18.45976752	      5.89247286	    -10.98861613	      4.19206387	     -1.49559390	      4.51479064	    -14.29414543	     -3.34527438	     31.89032276	     45.61556359	      0.00000000	      0.00000000	     12.39516750	    -10.18981187	     -1.04266110	     27.68389546	     46.44996486	      0.00000000	      0.00000000
